<?xml version="1.0" encoding="iso-8859-1"?>
<!-- Generator: Adobe Illustrator 19.0.0, SVG Export Plug-In . SVG Version: 6.00 Build 0)  -->
<svg version="1.1" id="Layer_1" xmlns="http://www.w3.org/2000/svg" x="0px" y="0px" viewBox="0 0 511.989 511.989" style="enable-background:new 0 0 511.989 511.989;"
    xml:space="preserve">
<g>
	<path style="fill:#FF3776;" d="M145.636,18.676C133.902,7.127,117.807,0,100.043,0C64.138,0,35.033,29.105,35.033,65.009
		s29.106,65.009,65.009,65.009l131.489,11.253l-11.253-48.814L145.636,18.676z"/>
	<path style="fill:#FF3776;" d="M291.71,92.457l74.643-73.781C378.087,7.127,394.182,0,411.946,0
		c35.904,0,65.009,29.105,65.009,65.009s-29.106,65.009-65.009,65.009l-131.49,11.253L291.71,92.457L291.71,92.457z"/>
</g>
<path style="fill:#FF709D;" d="M255.994,48.304c-24.346,0-44.155,19.808-44.155,44.155v60.067h88.309V92.458
	C300.149,68.111,280.342,48.304,255.994,48.304z"/>
<rect x="53.085" y="220.036" style="fill:#FFAA0E;" width="405.808" height="291.953"/>
<polygon style="fill:#FFD102;" points="30.583,130.02 30.583,242.547 481.406,242.547 481.406,130.02 312.258,130.02 
	255.994,163.778 199.731,130.02 "/>
<polygon style="fill:#E60048;" points="255.994,130.02 233.489,232.681 255.994,366.328 312.258,400.086 312.258,130.02 "/>
<polygon style="fill:#FF3776;" points="199.731,130.02 199.731,400.086 255.994,366.328 255.994,130.02 "/>
<path style="fill:#FFFFFF;" d="M68.791,73.449c-4.661,0-8.44-3.779-8.44-8.44c0-21.885,17.805-39.691,39.691-39.691
	c4.661,0,8.44,3.779,8.44,8.44s-3.779,8.44-8.44,8.44c-12.578,0-22.812,10.233-22.812,22.812
	C77.231,69.67,73.452,73.449,68.791,73.449z"/>
<g>
</g>
<g>
</g>
<g>
</g>
<g>
</g>
<g>
</g>
<g>
</g>
<g>
</g>
<g>
</g>
<g>
</g>
<g>
</g>
<g>
</g>
<g>
</g>
<g>
</g>
<g>
</g>
<g>
</g>
</svg>
